<?xml version="1.0" encoding="UTF-8" standalone="no"?>
<!DOCTYPE svg PUBLIC "-//W3C//DTD SVG 1.1//EN"
 "http://www.w3.org/Graphics/SVG/1.1/DTD/svg11.dtd">
<!-- Generated by graphviz version 2.40.1 (20161225.0304)
 -->
<!-- Title: feature_interaction_illustration1 Pages: 1 -->
<svg width="308pt" height="260pt"
 viewBox="0.00 0.00 307.52 260.00" xmlns="http://www.w3.org/2000/svg" xmlns:xlink="http://www.w3.org/1999/xlink">
<g id="graph0" class="graph" transform="scale(1 1) rotate(0) translate(4 256)">
<title>feature_interaction_illustration1</title>
<polygon fill="#ffffff" stroke="transparent" points="-4,4 -4,-256 303.5186,-256 303.5186,4 -4,4"/>
<!-- 0 -->
<g id="node1" class="node">
<title>0</title>
<polygon fill="none" stroke="#ff0000" points="183.5,-252 98.5,-252 98.5,-216 183.5,-216 183.5,-252"/>
<text text-anchor="start" x="106.5" y="-231.3" font-family="Helvetica,sans-Serif" font-size="14.00" fill="#ff0000">x</text>
<text text-anchor="start" x="113.5" y="-231.3" font-family="Helvetica,sans-Serif" baseline-shift="sub" font-size="11.00" fill="#ff0000">10</text>
<text text-anchor="start" x="124.5" y="-231.3" font-family="Helvetica,sans-Serif" font-size="14.00" fill="#ff0000"> &lt; &#45;1.5 ?</text>
</g>
<!-- 1 -->
<g id="node2" class="node">
<title>1</title>
<polygon fill="none" stroke="#000000" points="129,-180 65,-180 65,-144 129,-144 129,-180"/>
<text text-anchor="start" x="73" y="-159.3" font-family="Helvetica,sans-Serif" font-size="14.00" fill="#000000">x</text>
<text text-anchor="start" x="80" y="-159.3" font-family="Helvetica,sans-Serif" baseline-shift="sub" font-size="11.00" fill="#000000">2</text>
<text text-anchor="start" x="86" y="-159.3" font-family="Helvetica,sans-Serif" font-size="14.00" fill="#000000"> &lt; 2 ?</text>
</g>
<!-- 0&#45;&gt;1 -->
<g id="edge1" class="edge">
<title>0&#45;&gt;1</title>
<path fill="none" stroke="#000000" d="M129.8969,-215.8314C124.9326,-207.7079 118.9778,-197.9637 113.5072,-189.0118"/>
<polygon fill="#000000" stroke="#000000" points="116.4536,-187.121 108.2526,-180.4133 110.4806,-190.7712 116.4536,-187.121"/>
<text text-anchor="middle" x="103.5597" y="-196.1549" font-family="Helvetica,sans-Serif" font-size="14.00" fill="#000000">Yes/Missing &#160;&#160;&#160;&#160;&#160;&#160;&#160;&#160;&#160;&#160;</text>
</g>
<!-- 2 -->
<g id="node3" class="node">
<title>2</title>
<polygon fill="none" stroke="#ff0000" points="222.5,-180 147.5,-180 147.5,-144 222.5,-144 222.5,-180"/>
<text text-anchor="start" x="155.5" y="-159.3" font-family="Helvetica,sans-Serif" font-size="14.00" fill="#ff0000">x</text>
<text text-anchor="start" x="162.5" y="-159.3" font-family="Helvetica,sans-Serif" baseline-shift="sub" font-size="11.00" fill="#ff0000">7</text>
<text text-anchor="start" x="168.5" y="-159.3" font-family="Helvetica,sans-Serif" font-size="14.00" fill="#ff0000"> &lt; 0.3 ?</text>
</g>
<!-- 0&#45;&gt;2 -->
<g id="edge2" class="edge">
<title>0&#45;&gt;2</title>
<path fill="none" stroke="#ff0000" d="M152.1031,-215.8314C157.0674,-207.7079 163.0222,-197.9637 168.4928,-189.0118"/>
<polygon fill="#ff0000" stroke="#ff0000" points="171.5194,-190.7712 173.7474,-180.4133 165.5464,-187.121 171.5194,-190.7712"/>
<text text-anchor="middle" x="178.4403" y="-196.1549" font-family="Helvetica,sans-Serif" font-size="14.00" fill="#ff0000">No</text>
</g>
<!-- 3 -->
<g id="node4" class="node">
<title>3</title>
<text text-anchor="middle" x="27" y="-86.3" font-family="Helvetica,sans-Serif" font-size="14.00" fill="#000000">...</text>
</g>
<!-- 1&#45;&gt;3 -->
<g id="edge3" class="edge">
<title>1&#45;&gt;3</title>
<path fill="none" stroke="#000000" d="M79.336,-143.8314C71.0268,-135.2848 60.9736,-124.9443 51.9082,-115.6198"/>
<polygon fill="#000000" stroke="#000000" points="54.3821,-113.1435 44.9018,-108.4133 49.3631,-118.023 54.3821,-113.1435"/>
<text text-anchor="middle" x="44.6201" y="-124.7113" font-family="Helvetica,sans-Serif" font-size="14.00" fill="#000000">Yes</text>
</g>
<!-- 4 -->
<g id="node5" class="node">
<title>4</title>
<text text-anchor="middle" x="99" y="-86.3" font-family="Helvetica,sans-Serif" font-size="14.00" fill="#000000">...</text>
</g>
<!-- 1&#45;&gt;4 -->
<g id="edge4" class="edge">
<title>1&#45;&gt;4</title>
<path fill="none" stroke="#000000" d="M97.5047,-143.8314C97.7186,-136.131 97.9729,-126.9743 98.2106,-118.4166"/>
<polygon fill="#000000" stroke="#000000" points="101.7094,-118.5066 98.4885,-108.4133 94.7121,-118.3122 101.7094,-118.5066"/>
<text text-anchor="middle" x="112.2325" y="-119.2426" font-family="Helvetica,sans-Serif" font-size="14.00" fill="#000000"> &#160;&#160;&#160;&#160;&#160;&#160;&#160;&#160;&#160;&#160;&#160;&#160;No/Missing</text>
</g>
<!-- 5 -->
<g id="node6" class="node">
<title>5</title>
<polygon fill="none" stroke="#ff0000" points="221.5,-108 146.5,-108 146.5,-72 221.5,-72 221.5,-108"/>
<text text-anchor="start" x="154.5" y="-87.3" font-family="Helvetica,sans-Serif" font-size="14.00" fill="#ff0000">x</text>
<text text-anchor="start" x="161.5" y="-87.3" font-family="Helvetica,sans-Serif" baseline-shift="sub" font-size="11.00" fill="#ff0000">1</text>
<text text-anchor="start" x="167.5" y="-87.3" font-family="Helvetica,sans-Serif" font-size="14.00" fill="#ff0000"> &lt; 0.5 ?</text>
</g>
<!-- 2&#45;&gt;5 -->
<g id="edge5" class="edge">
<title>2&#45;&gt;5</title>
<path fill="none" stroke="#ff0000" d="M184.7477,-143.8314C184.6407,-136.131 184.5135,-126.9743 184.3947,-118.4166"/>
<polygon fill="#ff0000" stroke="#ff0000" points="187.8944,-118.3637 184.2557,-108.4133 180.8951,-118.4609 187.8944,-118.3637"/>
<text text-anchor="middle" x="198.5929" y="-118.6576" font-family="Helvetica,sans-Serif" font-size="14.00" fill="#ff0000">Yes</text>
</g>
<!-- 6 -->
<g id="node7" class="node">
<title>6</title>
<text text-anchor="middle" x="267" y="-86.3" font-family="Helvetica,sans-Serif" font-size="14.00" fill="#000000">...</text>
</g>
<!-- 2&#45;&gt;6 -->
<g id="edge6" class="edge">
<title>2&#45;&gt;6</title>
<path fill="none" stroke="#000000" d="M205.6921,-143.8314C215.6948,-135.0485 227.855,-124.3712 238.6999,-114.8489"/>
<polygon fill="#000000" stroke="#000000" points="241.1094,-117.3909 246.3146,-108.1628 236.4908,-112.1308 241.1094,-117.3909"/>
<text text-anchor="middle" x="245.0186" y="-124.4208" font-family="Helvetica,sans-Serif" font-size="14.00" fill="#000000"> &#160;&#160;&#160;&#160;&#160;&#160;&#160;&#160;&#160;&#160;No/Missing</text>
</g>
<!-- 7 -->
<g id="node8" class="node">
<title>7</title>
<text text-anchor="middle" x="132" y="-14.3" font-family="Helvetica,sans-Serif" font-size="14.00" fill="#000000">...</text>
</g>
<!-- 5&#45;&gt;7 -->
<g id="edge7" class="edge">
<title>5&#45;&gt;7</title>
<path fill="none" stroke="#000000" d="M170.8782,-71.8314C164.9501,-63.6232 157.8271,-53.7606 151.3067,-44.7323"/>
<polygon fill="#000000" stroke="#000000" points="153.9908,-42.4708 145.2985,-36.4133 148.316,-46.5693 153.9908,-42.4708"/>
</g>
<!-- 8 -->
<g id="node9" class="node">
<title>8</title>
<ellipse fill="none" stroke="#ff0000" cx="235" cy="-18" rx="57.6901" ry="18"/>
<text text-anchor="middle" x="235" y="-14.3" font-family="Helvetica,sans-Serif" font-size="14.00" fill="#ff0000">Predict +1.3</text>
</g>
<!-- 5&#45;&gt;8 -->
<g id="edge8" class="edge">
<title>5&#45;&gt;8</title>
<path fill="none" stroke="#ff0000" d="M196.8695,-71.8314C202.773,-63.497 209.8848,-53.4567 216.3594,-44.3162"/>
<polygon fill="#ff0000" stroke="#ff0000" points="219.3872,-46.0967 222.3113,-35.9134 213.675,-42.0506 219.3872,-46.0967"/>
</g>
</g>
</svg>
